<svg class="w-full h-full" width="40" height="54" viewBox="0 0 40 54" fill="none" xmlns="http://www.w3.org/2000/svg">
                <path fill-rule="evenodd" clip-rule="evenodd"
                    d="M16.1035 33.7344L11.999 25.9221L10.802 28.2023C10.6972 28.3912 10.4578 28.5493 10.2185 28.5493H3.99951V26.6468H9.38512L11.1139 23.3554C11.603 22.4233 12.395 22.4135 12.8957 23.3653L16.999 31.1764L23.1144 19.548C23.6035 18.6172 24.3955 18.606 24.8846 19.548L28.6139 26.6468H36V28.5493H27.8013C27.5722 28.5493 27.3018 28.3912 27.197 28.2023L23.9995 22.1159L17.8854 33.7443C17.395 34.6764 16.603 34.6863 16.1035 33.7344Z"
                    fill="#1B1B1F" />
                <path
                    d="M38.9997 3.80615C39.5523 3.80615 40 4.23208 40 4.758V52.342C40 52.8666 39.5523 53.2926 38.9997 53.2926H1.00026C0.447722 53.2926 0 52.8666 0 52.342V4.758C0 4.23208 0.447722 3.80615 1.00026 3.80615H16.0003V5.70986H1.99922V51.3901H37.9995V5.70986H23.9997V3.80615H38.9997Z"
                    fill="#1B1B1F" />
                <path
                    d="M34.9998 7.61353C35.551 7.61353 36 8.03945 36 8.56414V48.5345C36 49.0604 35.551 49.4864 34.9998 49.4864H4.99977C4.44723 49.4864 3.99951 49.0604 3.99951 48.5345V8.56414C3.99951 8.03945 4.44723 7.61353 4.99977 7.61353H13.9995V9.51599H6.00003V47.5827H33.9995V9.51599H26V7.61353H34.9998Z"
                    fill="#1B1B1F" />
                <path fill-rule="evenodd" clip-rule="evenodd"
                    d="M21.9993 5.70986C21.9993 6.76047 21.1038 7.61356 20 7.61356C18.895 7.61356 17.9995 6.76047 17.9995 5.70986C17.9995 4.65924 18.895 3.80615 20 3.80615C21.1038 3.80615 21.9993 4.65924 21.9993 5.70986Z"
                    fill="#1B1B1F" />
                <path
                    d="M13.9995 7.6037V5.70988C13.9995 2.55679 16.6872 0 19.9998 0C23.3124 0 26.0001 2.55679 26.0001 5.70988V7.6037H26.999C27.5516 7.6037 27.9993 8.02963 27.9993 8.55432V12.3716C27.9993 12.8963 27.5516 13.3235 26.999 13.3235H12.9993C12.4467 13.3235 11.999 12.8963 11.999 12.3716V8.55432C11.999 8.02963 12.4467 7.6037 12.9993 7.6037H13.9995ZM16.0001 8.55432C16.0001 9.08025 15.551 9.50617 14.9998 9.50617H13.9995V11.4198H26.0001V9.50617H24.9998C24.4473 9.50617 23.9995 9.08025 23.9995 8.55432V5.70988C23.9995 3.60864 22.2074 1.90247 19.9998 1.90247C17.7909 1.90247 16.0001 3.60864 16.0001 5.70988V8.55432Z"
                    fill="#1B1B1F" />
            </svg>