<svg class="w-full h-full" width="154" height="46" viewBox="0 0 154 46" fill="none" xmlns="http://www.w3.org/2000/svg">
                        <path
                            d="M148.148 45.6578H5.69801C2.56414 45.6578 0 43.0895 0 39.9506V5.70725C0 2.56824 2.56409 0 5.69801 0H148.148C151.282 0 153.846 2.56824 153.846 5.70725V39.9505C153.846 43.0895 151.282 45.6578 148.148 45.6578"
                            fill="#1B1B1F" />
                        <path
                            d="M148.148 0H5.69801C2.56414 0 0 2.56824 0 5.70725V39.9505C0 43.0895 2.56409 45.6578 5.69801 45.6578H148.148C151.282 45.6578 153.846 43.0895 153.846 39.9506V5.70725C153.846 2.56824 151.282 0 148.148 0H148.148ZM148.148 0.913126C150.787 0.913126 152.934 3.0641 152.934 5.70725V39.9505C152.934 42.5942 150.787 44.7451 148.148 44.7451H5.69801C3.05918 44.7451 0.91169 42.5941 0.91169 39.9506V5.70725C0.91169 3.0641 3.05913 0.913178 5.69801 0.913178H148.148"
                            fill="#A6A6A6" />
                        <path
                            d="M54.0384 11.6923C54.0384 12.6486 53.7556 13.4101 53.1894 13.9782C52.5461 14.6537 51.7078 14.9917 50.6773 14.9917C49.6904 14.9917 48.8513 14.6493 48.1612 13.9635C47.47 13.2782 47.125 12.4283 47.125 11.4144C47.125 10.4 47.47 9.55072 48.1612 8.86486C48.8513 8.1796 49.6904 7.83667 50.6773 7.83667C51.167 7.83667 51.6358 7.9326 52.0809 8.12389C52.5261 8.31565 52.8831 8.57019 53.1502 8.88897L52.5492 9.49132C52.0965 8.9496 51.4733 8.67895 50.6773 8.67895C49.9575 8.67895 49.3352 8.93226 48.8099 9.4392C48.2846 9.94665 48.022 10.6047 48.022 11.4144C48.022 12.2242 48.2846 12.8822 48.8099 13.3897C49.3352 13.8966 49.9575 14.1499 50.6773 14.1499C51.4408 14.1499 52.0774 13.8952 52.587 13.3852C52.9179 13.053 53.1092 12.5911 53.1604 11.998H50.6772V11.1754H53.9906C54.0227 11.3543 54.0383 11.5259 54.0383 11.6923"
                            fill="#FEFBFF" />
                        <path
                            d="M54.038 11.6924H53.924C53.9231 12.6269 53.6506 13.3528 53.1083 13.8977L53.1071 13.8986L53.1066 13.8995C52.4839 14.5517 51.6833 14.8764 50.6768 14.8777C49.7163 14.8764 48.9123 14.5482 48.2409 13.8829C47.5711 13.2164 47.2398 12.4026 47.2386 11.4146C47.2398 10.4261 47.5711 9.61278 48.2409 8.94666C48.9123 8.28095 49.7163 7.95232 50.6768 7.95094C51.1519 7.95094 51.6042 8.04379 52.0355 8.22878C52.4673 8.4152 52.8084 8.65949 53.0625 8.96277L53.1498 8.8891L53.0692 8.80841L52.4682 9.41118L52.5487 9.49146L52.6365 9.41841C52.1628 8.84986 51.4978 8.56325 50.6769 8.56494C49.9304 8.56402 49.2738 8.83119 48.7307 9.35736C48.1823 9.88523 47.9067 10.5803 47.9077 11.4146C47.9067 12.2489 48.1823 12.9439 48.7307 13.4718C49.2738 13.998 49.9304 14.2651 50.6768 14.2642C51.4657 14.2656 52.1379 13.9975 52.6672 13.4661C53.0206 13.1111 53.221 12.6194 53.2736 12.008L53.2842 11.8841H50.7908V11.2897H53.9903V11.1756L53.878 11.1956C53.9092 11.3687 53.9239 11.5332 53.9239 11.6924H54.1519C54.1519 11.5189 54.1358 11.3406 54.1024 11.1551L54.0855 11.0614H50.563V12.1123H53.16V11.9982L53.0465 11.9884C52.9962 12.5628 52.8137 12.9953 52.5061 13.3047C52.0164 13.7934 51.4154 14.0345 50.6769 14.0359C49.9838 14.035 49.3958 13.796 48.8888 13.3078C48.3866 12.8213 48.1369 12.2002 48.1356 11.4146C48.1369 10.6289 48.3866 10.0078 48.8888 9.52137C49.3958 9.03315 49.9838 8.79415 50.6769 8.79322C51.4475 8.79507 52.0294 9.05008 52.4616 9.56507L52.5418 9.66049L53.2304 8.96985L53.3043 8.89587L53.237 8.81595C52.957 8.48163 52.584 8.21626 52.1255 8.01927C51.6661 7.82167 51.1813 7.72266 50.6769 7.72266C49.6638 7.72179 48.7895 8.07847 48.0803 8.78435C47.3686 9.48884 47.0098 10.3744 47.0107 11.4146C47.0098 12.4543 47.3686 13.3403 48.0808 14.0453C48.7895 14.7507 49.6638 15.1069 50.6769 15.106C51.732 15.1069 52.6072 14.756 53.2714 14.0573L53.1889 13.9784L53.2695 14.0591C53.8598 13.4683 54.1527 12.6702 54.1519 11.6924H54.0379H54.038ZM59.2907 8.8316H56.1768V11.0031H58.985V11.826H56.1768V13.9975H59.2907V14.8389H55.299V7.99024H59.2907V8.8316Z"
                            fill="#FEFBFF" />
                        <path
                            d="M59.2907 8.83148V8.71734H56.0629V11.1171H58.8709V11.7115L56.0628 11.7118V14.1116H59.1767V14.7246H55.413V8.10426H59.1767V8.83148H59.2907V8.71734V8.83148H59.4046V7.87598H55.1851V14.9529H59.4046V13.8833H56.2908V11.9401H59.0989V10.8888H56.2908V8.94562H59.4046V8.83148H59.2907ZM62.9957 14.8388H62.1165V8.83142H60.2068V7.99007H64.9054V8.83142H62.9957V14.8387"
                            fill="#FEFBFF" />
                        <path
                            d="M62.9956 14.8388V14.7246H62.2304V8.71733H60.3207V8.10431H64.7914V8.71733H62.8817V14.8388H62.9956V14.7246V14.8388H63.1096V8.94562H65.0193V7.87598H60.0928V8.94556H62.0025V14.9529H63.1096V14.8387H62.9956V14.8388ZM68.305 14.8388V7.99007H69.1833V14.8387H68.305"
                            fill="#FEFBFF" />
                        <path
                            d="M68.3053 14.8388H68.4193V8.10426H69.0696V14.7246H68.3053V14.8388H68.4193H68.3053V14.9529H69.2976V7.87598H68.1914V14.9529H68.3053V14.8388V14.8388ZM73.0809 14.8388H72.2017V8.83142H70.2921V7.99007H74.9906V8.83142H73.0809V14.8387"
                            fill="#FEFBFF" />
                        <path
                            d="M73.081 14.8388V14.7246H72.3158V8.71732H70.4061V8.1043H74.8768V8.71732H72.9671V14.8387H73.081V14.7246V14.8387H73.195V8.9456H75.1047V7.87596H70.1782V8.94555H72.0878V14.9528H73.195V14.8387H73.081V14.8388ZM79.5207 13.3803C80.0267 13.8935 80.646 14.1498 81.3783 14.1498C82.1106 14.1498 82.7302 13.8935 83.2355 13.3803C83.7421 12.8672 83.9959 12.2111 83.9959 11.4144C83.9959 10.6177 83.7421 9.96173 83.2355 9.44854C82.7302 8.93534 82.1106 8.67895 81.3783 8.67895C80.646 8.67895 80.0267 8.93534 79.5207 9.44854C79.0154 9.96173 78.7617 10.6177 78.7617 11.4144C78.7617 12.2111 79.0154 12.8672 79.5207 13.3803ZM83.8854 13.9537C83.2132 14.646 82.3772 14.9917 81.3783 14.9917C80.3785 14.9917 79.5428 14.646 78.8721 13.9537C78.1994 13.2621 77.8647 12.4155 77.8647 11.4144C77.8647 10.4134 78.1994 9.56663 78.8721 8.87517C79.5429 8.18263 80.3785 7.83667 81.3783 7.83667C82.3719 7.83667 83.2057 8.18448 83.881 8.87963C84.5554 9.57473 84.8928 10.4196 84.8928 11.4144C84.8928 12.4155 84.5562 13.2621 83.8854 13.9537Z"
                            fill="#FEFBFF" />
                        <path
                            d="M79.5204 13.3802L79.4394 13.4605C79.9643 13.9942 80.6191 14.2653 81.3781 14.2639C82.1366 14.2653 82.7923 13.9942 83.3163 13.4605C83.8447 12.9262 84.1104 12.2351 84.1096 11.4143C84.1104 10.5935 83.8447 9.90237 83.3163 9.36814C82.7923 8.83442 82.1366 8.56336 81.3781 8.56469C80.6191 8.56336 79.9643 8.83442 79.4394 9.36814C78.9123 9.90237 78.6461 10.5935 78.6475 11.4143C78.6461 12.2351 78.9123 12.9262 79.4394 13.4605L79.5204 13.3802L79.6015 13.3C79.118 12.8072 78.8763 12.1874 78.8754 11.4143C78.8763 10.6412 79.118 10.0214 79.6014 9.52865C80.0893 9.03603 80.672 8.79436 81.3781 8.79303C82.0836 8.79436 82.6677 9.03603 83.1543 9.52865C83.6386 10.0214 83.8803 10.6412 83.8812 11.4143C83.8803 12.1874 83.6386 12.8072 83.1543 13.3C82.6677 13.7926 82.0837 14.0343 81.3781 14.0356C80.672 14.0343 80.0893 13.7926 79.6014 13.3L79.5204 13.3802ZM83.8852 13.9536L83.8037 13.8742C83.1503 14.5448 82.3512 14.8761 81.3781 14.8775C80.4045 14.8761 79.6054 14.5448 78.9532 13.8742L78.9501 13.8707L78.9532 13.8742C78.3011 13.2014 77.9793 12.3899 77.9784 11.4143C77.9793 10.4387 78.3011 9.62725 78.9532 8.95441C79.6054 8.28378 80.4045 7.95208 81.3781 7.95075C82.3449 7.95208 83.1422 8.28517 83.7993 8.95929C84.4537 9.63525 84.7773 10.4454 84.7787 11.4143C84.7773 12.3899 84.4546 13.2014 83.8037 13.8742L83.8852 13.9536L83.9672 14.0329C84.658 13.3222 85.0074 12.4407 85.0066 11.4143C85.0074 10.3938 84.6566 9.51403 83.9626 8.80021C83.2682 8.08356 82.3984 7.72118 81.3781 7.72242C80.3525 7.72118 79.48 8.08187 78.7899 8.79575V8.79523C78.0977 9.50639 77.7496 10.3879 77.7505 11.4143C77.7496 12.4407 78.0977 13.3222 78.7899 14.0333L78.793 14.0366L78.7899 14.0329C79.48 14.7467 80.3525 15.1067 81.3781 15.1057C82.4033 15.1067 83.2758 14.7467 83.9672 14.0329L83.8852 13.9536ZM86.1257 14.8387V7.98994H87.195L90.5181 13.3177H90.5559L90.5181 11.9979V7.98994H91.3973V14.8386H90.4802L87.0035 9.25261H86.9657L87.0035 10.5729V14.8386H86.1257"
                            fill="#FEFBFF" />
                        <path
                            d="M86.126 14.8388H86.24V8.10426H87.1321L90.4552 13.432H90.6733L90.6324 11.9964V8.10431H91.2837V14.7246H90.5438L87.0672 9.13866H86.849L86.8899 10.5749V14.7246H86.1261V14.8388H86.24H86.1261V14.9529H87.1179V10.5713L87.08 9.24972L86.9661 9.2528V9.36694H87.0039V9.2528L86.9073 9.31348L90.4174 14.9529H91.5116V7.87598H90.4045V11.9994L90.4423 13.321L90.5563 13.3179V13.2038H90.5184V13.3179L90.6151 13.2573L87.2585 7.87598H86.0121V14.9529H86.1261V14.8388L86.126 14.8388ZM121.865 34.2433H123.991V19.9739H121.865L121.865 34.2433ZM141.018 25.1141L138.58 31.3006H138.507L135.977 25.1141H133.687L137.481 33.7608L135.318 38.5706H137.536L143.383 25.1141L141.018 25.1141ZM128.959 32.6226C128.261 32.6226 127.29 32.2739 127.29 31.4107C127.29 30.3093 128.501 29.8871 129.544 29.8871C130.48 29.8871 130.919 30.0891 131.487 30.3647C131.322 31.6863 130.186 32.6226 128.959 32.6226ZM129.215 24.8019C127.675 24.8019 126.081 25.4814 125.421 26.9867L127.309 27.7759C127.712 26.9867 128.463 26.7294 129.252 26.7294C130.351 26.7294 131.469 27.3907 131.487 28.5656V28.7123C131.102 28.492 130.278 28.1616 129.27 28.1616C127.236 28.1616 125.164 29.2811 125.164 31.3741C125.164 33.2834 126.832 34.5135 128.701 34.5135C130.131 34.5135 130.919 33.871 131.415 33.1184H131.487V34.2197H133.54V28.7488C133.54 26.2158 131.653 24.8019 129.215 24.8019ZM116.073 26.8511H113.049V21.9599H116.073C117.663 21.9599 118.566 23.2783 118.566 24.4055C118.566 25.5113 117.663 26.8511 116.073 26.8511ZM116.019 19.9739H110.923V34.2433H113.049V28.8371H116.019C118.375 28.8371 120.692 27.128 120.692 24.4055C120.692 21.683 118.375 19.9739 116.019 19.9739ZM88.2339 32.6252C86.7648 32.6252 85.5349 31.3933 85.5349 29.7012C85.5349 27.9913 86.7648 26.7406 88.2339 26.7406C89.6842 26.7406 90.8225 27.9913 90.8225 29.7012C90.8225 31.3933 89.6842 32.6252 88.2339 32.6252H88.2339ZM90.6756 25.9131H90.6021C90.1249 25.3432 89.2065 24.8283 88.0501 24.8283C85.6266 24.8283 83.4053 26.9613 83.4053 29.7012C83.4053 32.4229 85.6265 34.5376 88.0501 34.5376C89.2065 34.5376 90.1249 34.0226 90.6021 33.4345H90.6756V34.1332C90.6756 35.9908 89.6842 36.9837 88.087 36.9837C86.7835 36.9837 85.9756 36.0456 85.6448 35.255L83.7908 36.0273C84.3232 37.3145 85.737 38.8961 88.087 38.8961C90.5838 38.8961 92.6952 37.4246 92.6952 33.8389V25.1225H90.6756V25.9131ZM94.1638 34.2433H96.2935V19.9734H94.1638V34.2433ZM99.4331 29.5358C99.3779 27.6599 100.883 26.704 101.967 26.704C102.812 26.704 103.527 27.1267 103.765 27.7341L99.4331 29.5358ZM106.042 27.9177C105.639 26.8324 104.408 24.8283 101.893 24.8283C99.3962 24.8283 97.3217 26.7958 97.3217 29.6829C97.3217 32.4046 99.3779 34.5376 102.132 34.5376C104.354 34.5376 105.639 33.1768 106.171 32.3862L104.519 31.2826C103.968 32.0919 103.215 32.6252 102.132 32.6252C101.049 32.6252 100.278 32.1286 99.7816 31.1542L106.262 28.4692L106.042 27.9177ZM54.4091 26.3178V28.3774H59.3293C59.1825 29.5358 58.7969 30.3816 58.2093 30.9701C57.4935 31.6875 56.3736 32.4781 54.4091 32.4781C51.3797 32.4781 49.0115 30.0324 49.0115 26.9982C49.0115 23.9641 51.3797 21.5181 54.4091 21.5181C56.0432 21.5181 57.2362 22.1618 58.1176 22.9893L59.568 21.5368C58.338 20.3596 56.7038 19.4586 54.4091 19.4586C50.2597 19.4586 46.7715 22.8423 46.7715 26.9982C46.7715 31.1542 50.2597 34.5376 54.4091 34.5376C56.6491 34.5376 58.338 33.8024 59.6597 32.4229C61.0184 31.062 61.4408 29.1497 61.4408 27.6051C61.4408 27.1267 61.4042 26.6857 61.3304 26.3178H54.4091ZM67.0346 32.6252C65.5656 32.6252 64.2987 31.4115 64.2987 29.6829C64.2987 27.9359 65.5656 26.7406 67.0346 26.7406C68.5031 26.7406 69.77 27.9359 69.77 29.6829C69.77 31.4115 68.5031 32.6252 67.0346 32.6252ZM67.0346 24.8283C64.3538 24.8283 62.169 26.8694 62.169 29.6829C62.169 32.4781 64.3538 34.5376 67.0346 34.5376C69.7149 34.5376 71.8997 32.4781 71.8997 29.6829C71.8997 26.8694 69.7149 24.8283 67.0346 24.8283ZM77.648 32.6252C76.1795 32.6252 74.9125 31.4115 74.9125 29.6829C74.9125 27.9359 76.1795 26.7406 77.648 26.7406C79.1166 26.7406 80.3835 27.9359 80.3835 29.6829C80.3835 31.4115 79.1166 32.6252 77.648 32.6252H77.648ZM77.648 24.8283C74.9673 24.8283 72.7829 26.8694 72.7829 29.6829C72.7829 32.4781 74.9673 34.5376 77.648 34.5376C80.3283 34.5376 82.5132 32.4781 82.5132 29.6829C82.5132 26.8694 80.3283 24.8283 77.648 24.8283H77.648Z"
                            fill="#FEFBFF" />
                        <path
                            d="M11.9755 8.68792C11.593 9.03352 11.3647 9.60997 11.3647 10.3752V10.2022V35.4522V35.2859C11.3647 35.9925 11.5606 36.5383 11.8922 36.8897L11.9768 36.9709V36.9712C12.2452 37.2138 12.5894 37.3426 12.9838 37.3422C13.3692 37.3422 13.8028 37.2191 14.2605 36.9593L30.802 27.5454L36.4839 24.3115C37.2056 23.9009 37.6107 23.3712 37.6784 22.8316V22.8294C37.6107 22.2886 37.2056 21.7593 36.484 21.3486L30.8016 18.1151L14.2605 8.70126C13.8019 8.44091 13.368 8.31738 12.9815 8.31738C12.5876 8.31738 12.2439 8.44578 11.9756 8.68792H11.9755Z"
                            fill="#00C1FF" />
                        <path
                            d="M11.9768 36.9707L11.8922 36.8895C11.5606 36.5381 11.3647 35.9924 11.3647 35.2857V35.452V10.2083V10.375C11.3647 9.60985 11.593 9.0334 11.9755 8.6878L26.0949 22.8297L11.9768 36.9707Z"
                            fill="url(#paint0_linear_325_976)" />
                        <path
                            d="M30.8024 27.5454L26.0952 22.8299L30.8019 18.1151L36.4843 21.3486C37.2059 21.7593 37.611 22.2886 37.6787 22.8294V22.8316C37.611 23.3711 37.2059 23.9009 36.4843 24.3115L30.8024 27.5454"
                            fill="url(#paint1_linear_325_976)" />
                        <path
                            d="M12.984 37.3423C12.5896 37.3426 12.2454 37.2138 11.9771 36.9712V36.9709L26.0951 22.8298L30.8022 27.5454L14.2606 36.9593C13.803 37.2192 13.3694 37.3423 12.984 37.3423Z"
                            fill="url(#paint2_linear_325_976)" />
                        <path
                            d="M26.095 22.8298L11.9756 8.68799C12.244 8.44586 12.5877 8.31746 12.9816 8.31746C13.368 8.31746 13.802 8.44094 14.2606 8.70133L30.8017 18.1151L26.095 22.8298"
                            fill="url(#paint3_linear_325_976)" />
                        <path
                            d="M12.9846 37.5093C12.5902 37.5093 12.2456 37.3804 11.9772 37.1379L11.9767 37.1383C11.9756 37.1372 11.9744 37.1361 11.9732 37.1352L11.8998 37.0634C11.8975 37.0611 11.8953 37.0585 11.8926 37.0559L11.9772 36.9711C12.2456 37.2136 12.5897 37.3425 12.9842 37.342C13.3696 37.342 13.8032 37.219 14.2609 36.9591L30.8024 27.5453L30.9084 27.6515L30.8011 27.7125L14.2608 37.1258C13.8437 37.3626 13.447 37.4861 13.0887 37.5067C13.054 37.5084 13.0193 37.5092 12.9846 37.5092"
                            fill="url(#paint4_linear_325_976)" />
                        <path
                            d="M11.8922 37.0559C11.5606 36.7045 11.3647 36.1592 11.3647 35.4521V35.2858C11.3647 35.9924 11.5606 36.5381 11.8922 36.8896L11.9768 36.9708L11.8922 37.0559Z"
                            fill="url(#paint5_linear_325_976)" />
                        <path
                            d="M30.9082 27.6516L30.8022 27.5454L36.4842 24.3114C37.2058 23.9009 37.6109 23.3711 37.6786 22.8316C37.6786 23.0296 37.6345 23.2275 37.5469 23.4202C37.3701 23.8086 37.0158 24.1755 36.4842 24.4782L30.9082 27.6516"
                            fill="url(#paint6_linear_325_976)" />
                        <path
                            d="M37.6787 22.8293C37.6109 22.2885 37.2058 21.7592 36.4842 21.3485L30.8018 18.115L30.9077 18.0088H30.9082L36.4842 21.1822C37.2798 21.6352 37.6782 22.2322 37.6787 22.8293Z"
                            fill="url(#paint7_linear_325_976)" />
                        <path
                            d="M11.3647 10.375V10.2006C11.3647 10.1377 11.3664 10.0762 11.3697 10.0165V10.0137C11.3697 10.0129 11.3697 10.012 11.37 10.0111V10.0044C11.4043 9.39573 11.593 8.92094 11.8922 8.6039L11.9755 8.68768C11.593 9.03334 11.3647 9.6098 11.3647 10.375Z"
                            fill="url(#paint8_linear_325_976)" />
                        <path
                            d="M30.8015 18.115L14.2604 8.70109C13.8018 8.44075 13.3679 8.31727 12.9814 8.31727C12.5875 8.31727 12.2437 8.44567 11.9754 8.6878L11.8921 8.60398C11.9181 8.57639 11.9451 8.54979 11.9731 8.52421C11.974 8.52329 11.9754 8.52236 11.9763 8.52149C12.2425 8.28121 12.5826 8.15281 12.973 8.1505H12.9814C13.3679 8.1505 13.8018 8.27403 14.2604 8.53447L30.9079 18.0084L30.9075 18.0088L30.8015 18.115Z"
                            fill="url(#paint9_linear_325_976)" />
                        <defs>
                            <linearGradient id="paint0_linear_325_976" x1="20.3879" y1="9.9415" x2="8.22012" y2="22.1289"
                                gradientUnits="userSpaceOnUse">
                                <stop stop-color="#00A0FF" />
                                <stop offset="0.00657" stop-color="#00A1FF" />
                                <stop offset="0.2601" stop-color="#00BEFF" />
                                <stop offset="0.5122" stop-color="#00D2FF" />
                                <stop offset="0.7604" stop-color="#00DFFF" />
                                <stop offset="1" stop-color="#00E3FF" />
                            </linearGradient>
                            <linearGradient id="paint1_linear_325_976" x1="38.5579" y1="22.7484" x2="10.9829" y2="22.7484"
                                gradientUnits="userSpaceOnUse">
                                <stop stop-color="#FFE000" />
                                <stop offset="0.4087" stop-color="#FFBD00" />
                                <stop offset="0.7754" stop-color="#FFA500" />
                                <stop offset="1" stop-color="#FF9C00" />
                            </linearGradient>
                            <linearGradient id="paint2_linear_325_976" x1="28.3032" y1="27.3132" x2="7.68385" y2="47.8148"
                                gradientUnits="userSpaceOnUse">
                                <stop stop-color="#FF3A44" />
                                <stop offset="1" stop-color="#C31162" />
                            </linearGradient>
                            <linearGradient id="paint3_linear_325_976" x1="8.33661" y1="6.5914" x2="17.5261" y2="15.7425"
                                gradientUnits="userSpaceOnUse">
                                <stop stop-color="#32A071" />
                                <stop offset="0.0685" stop-color="#2DA771" />
                                <stop offset="0.4762" stop-color="#15CF74" />
                                <stop offset="0.8009" stop-color="#06E775" />
                                <stop offset="1" stop-color="#00F076" />
                            </linearGradient>
                            <linearGradient id="paint4_linear_325_976" x1="28.2931" y1="30.584" x2="11.7802" y2="47.1237"
                                gradientUnits="userSpaceOnUse">
                                <stop stop-color="#CC2E36" />
                                <stop offset="1" stop-color="#9C0E4E" />
                            </linearGradient>
                            <linearGradient id="paint5_linear_325_976" x1="13.2457" y1="9.94147" x2="2.52602" y2="20.6787"
                                gradientUnits="userSpaceOnUse">
                                <stop stop-color="#008DE0" />
                                <stop offset="0.00657" stop-color="#008DE0" />
                                <stop offset="0.2601" stop-color="#00A7E0" />
                                <stop offset="0.5122" stop-color="#00B8E0" />
                                <stop offset="0.7604" stop-color="#00C4E0" />
                                <stop offset="1" stop-color="#00C7E0" />
                            </linearGradient>
                            <linearGradient id="paint6_linear_325_976" x1="38.5579" y1="22.8305" x2="10.9828" y2="22.8305"
                                gradientUnits="userSpaceOnUse">
                                <stop stop-color="#E0C500" />
                                <stop offset="0.4087" stop-color="#E0A600" />
                                <stop offset="0.7754" stop-color="#E09100" />
                                <stop offset="1" stop-color="#E08900" />
                            </linearGradient>
                            <linearGradient id="paint7_linear_325_976" x1="38.5579" y1="22.8305" x2="10.9827" y2="22.8305"
                                gradientUnits="userSpaceOnUse">
                                <stop stop-color="#FFE840" />
                                <stop offset="0.4087" stop-color="#FFCE40" />
                                <stop offset="0.7754" stop-color="#FFBC40" />
                                <stop offset="1" stop-color="#FFB540" />
                            </linearGradient>
                            <linearGradient id="paint8_linear_325_976" x1="13.234" y1="9.96085" x2="2.90888" y2="19.8544"
                                gradientUnits="userSpaceOnUse">
                                <stop stop-color="#40B8FF" />
                                <stop offset="0.00657" stop-color="#40B9FF" />
                                <stop offset="0.2601" stop-color="#40CEFF" />
                                <stop offset="0.5122" stop-color="#40DDFF" />
                                <stop offset="0.7604" stop-color="#40E7FF" />
                                <stop offset="1" stop-color="#40EAFF" />
                            </linearGradient>
                            <linearGradient id="paint9_linear_325_976" x1="8.31578" y1="9.58194" x2="15.6895" y2="16.9677"
                                gradientUnits="userSpaceOnUse">
                                <stop stop-color="#65B895" />
                                <stop offset="0.0685" stop-color="#62BD95" />
                                <stop offset="0.4762" stop-color="#50DB97" />
                                <stop offset="0.8009" stop-color="#44ED98" />
                                <stop offset="1" stop-color="#40F498" />
                            </linearGradient>
                        </defs>
                    </svg>